:FULLY-SPECIFIED
:FORCE-ALL-JOINTS-BE-3DOF
:DEGREES
1937
root 5.75472 13.7085 27.9971 1043.51 70.3808 320.098
lfemur -60.9124 3.60167 -1.94851
ltibia 59.0303 0 0
lfoot 1.02476 -2.2557 0
ltoes -31.215 0 0
rfemur -4.43869 1.01838 18.0912
rtibia 65.4116 0 0
rfoot -23.8976 -25.0659 0
rtoes -28.8398 0 0
lowerback 13.5893 4.44676 4.45507
upperback -0.463419 6.98823 3.45161
thorax -8.02448 3.31001 -0.225622
lowerneck -0.896615 15.6536 6.48562
upperneck 6.06061 21.3406 -7.11155
head 3.71191 10.59 -2.35224
lclavicle 7.4788e-14 -4.10822e-14 0
lhumerus 72.2505 -30.8371 42.5895
lradius 58.9019 0 0
lwrist 16.3821 0 0
lhand -7.62033 32.4826 0
lfingers 7.12502 0 0
lthumb 18.2717 61.6106 0
rclavicle 7.4788e-14 -4.10822e-14 0
rhumerus -33.9452 31.2622 -75.0371
rradius 90.8106 0 0
rwrist -31.6503 0 0
rhand -13.8988 -404.855 0
rfingers 7.12502 0 0
rthumb 12.224 285.566 0
1938
root 5.61407 13.7306 28.0343 1039.96 71.0408 316.445
lfemur -60.7654 2.81855 -1.8432
ltibia 57.1052 0 0
lfoot 1.35594 -2.65141 0
ltoes -30.897 0 0
rfemur -4.83438 1.73618 18.5526
rtibia 65.4884 0 0
rfoot -23.9944 -24.9879 0
rtoes -29.4703 0 0
lowerback 13.628 4.38505 4.47209
upperback -0.477016 6.91289 3.44353
thorax -8.06048 3.27167 -0.232254
lowerneck -0.916134 15.6057 6.51501
upperneck 6.00999 21.273 -7.16012
head 3.68515 10.5552 -2.3638
lclavicle 7.22274e-14 -3.92269e-14 0
lhumerus 73.7102 -31.2597 41.0531
lradius 61.9295 0 0
lwrist 17.0358 0 0
lhand -8.05043 32.7435 0
lfingers 7.12502 0 0
lthumb 17.8575 61.9039 0
rclavicle 7.22274e-14 -3.92269e-14 0
rhumerus -33.0616 32.2505 -74.7128
rradius 91.0468 0 0
rwrist -31.9497 0 0
rhand -13.4039 -404.634 0
rfingers 7.12502 0 0
rthumb 12.7007 285.823 0
1939
root 5.47343 13.7528 28.0715 1036.41 71.7009 312.791
lfemur -60.6184 2.03544 -1.73788
ltibia 55.1801 0 0
lfoot 1.68711 -3.04713 0
ltoes -30.579 0 0
rfemur -5.23007 2.45399 19.014
rtibia 65.5653 0 0
rfoot -24.0912 -24.9099 0
rtoes -30.1008 0 0
lowerback 13.6667 4.32334 4.48912
upperback -0.490613 6.83756 3.43545
thorax -8.09648 3.23333 -0.238885
lowerneck -0.935653 15.5578 6.54441
upperneck 5.95936 21.2055 -7.20868
head 3.65839 10.5203 -2.37536
lclavicle 6.96669e-14 -3.73715e-14 0
lhumerus 75.1699 -31.6823 39.5167
lradius 64.9571 0 0
lwrist 17.6896 0 0
lhand -8.48053 33.0044 0
lfingers 7.12502 0 0
lthumb 17.4433 62.1972 0
rclavicle 6.96669e-14 -3.73715e-14 0
rhumerus -32.1781 33.2388 -74.3884
rradius 91.283 0 0
rwrist -32.2491 0 0
rhand -12.909 -404.414 0
rfingers 7.12502 0 0
rthumb 13.1774 286.08 0
1940
root 5.33278 13.775 28.1087 1032.86 72.361 309.138
lfemur -60.4715 1.25232 -1.63256
ltibia 53.2551 0 0
lfoot 2.01829 -3.44285 0
ltoes -30.261 0 0
rfemur -5.62576 3.17179 19.4754
rtibia 65.6422 0 0
rfoot -24.188 -24.8319 0
rtoes -30.7314 0 0
lowerback 13.7055 4.26163 4.50614
upperback -0.504211 6.76222 3.42737
thorax -8.13249 3.19499 -0.245517
lowerneck -0.955172 15.5099 6.5738
upperneck 5.90874 21.1379 -7.25725
head 3.63163 10.4855 -2.38692
lclavicle 6.71064e-14 -3.55162e-14 0
lhumerus 76.6296 -32.105 37.9803
lradius 67.9847 0 0
lwrist 18.3433 0 0
lhand -8.91063 33.2653 0
lfingers 7.12502 0 0
lthumb 17.0291 62.4905 0
rclavicle 6.71064e-14 -3.55162e-14 0
rhumerus -31.2945 34.2271 -74.0641
rradius 91.5192 0 0
rwrist -32.5486 0 0
rhand -12.414 -404.194 0
rfingers 7.12502 0 0
rthumb 13.654 286.337 0
1941
root 5.19214 13.7971 28.1459 1029.32 73.021 305.484
lfemur -60.3245 0.469203 -1.52725
ltibia 51.33 0 0
lfoot 2.34947 -3.83856 0
ltoes -29.943 0 0
rfemur -6.02145 3.88959 19.9368
rtibia 65.719 0 0
rfoot -24.2848 -24.7539 0
rtoes -31.3619 0 0
lowerback 13.7442 4.19992 4.52316
upperback -0.517808 6.68688 3.4193
thorax -8.16849 3.15665 -0.252149
lowerneck -0.974691 15.462 6.6032
upperneck 5.85812 21.0703 -7.30582
head 3.60487 10.4506 -2.39849
lclavicle 6.45458e-14 -3.36609e-14 0
lhumerus 78.0894 -32.5276 36.444
lradius 71.0123 0 0
lwrist 18.997 0 0
lhand -9.34072 33.5261 0
lfingers 7.12502 0 0
lthumb 16.6149 62.7839 0
rclavicle 6.45458e-14 -3.36609e-14 0
rhumerus -30.4109 35.2154 -73.7398
rradius 91.7555 0 0
rwrist -32.848 0 0
rhand -11.9191 -403.973 0
rfingers 7.12502 0 0
rthumb 14.1307 286.594 0
1942
root 5.05149 13.8193 28.1831 1025.77 73.6811 301.831
lfemur -60.1775 -0.313914 -1.42193
ltibia 49.4049 0 0
lfoot 2.68064 -4.23428 0
ltoes -29.625 0 0
rfemur -6.41714 4.60739 20.3982
rtibia 65.7959 0 0
rfoot -24.3816 -24.6759 0
rtoes -31.9924 0 0
lowerback 13.7829 4.13821 4.54018
upperback -0.531405 6.61155 3.41122
thorax -8.20449 3.11831 -0.25878
lowerneck -0.99421 15.4141 6.63259
upperneck 5.80749 21.0028 -7.35439
head 3.57811 10.4158 -2.41005
lclavicle 6.19853e-14 -3.18056e-14 0
lhumerus 79.5491 -32.9502 34.9076
lradius 74.0399 0 0
lwrist 19.6507 0 0
lhand -9.77082 33.787 0
lfingers 7.12502 0 0
lthumb 16.2007 63.0772 0
rclavicle 6.19853e-14 -3.18056e-14 0
rhumerus -29.5274 36.2037 -73.4154
rradius 91.9917 0 0
rwrist -33.1474 0 0
rhand -11.4241 -403.753 0
rfingers 7.12502 0 0
rthumb 14.6074 286.851 0
1943
root 4.91085 13.8415 28.2203 1022.22 74.3412 298.177
lfemur -60.0306 -1.09703 -1.31661
ltibia 47.4798 0 0
lfoot 3.01182 -4.63 0
ltoes -29.307 0 0
rfemur -6.81283 5.32519 20.8596
rtibia 65.8728 0 0
rfoot -24.4784 -24.5979 0
rtoes -32.623 0 0
lowerback 13.8217 4.0765 4.5572
upperback -0.545002 6.53621 3.40314
thorax -8.24049 3.07997 -0.265412
lowerneck -1.01373 15.3662 6.66199
upperneck 5.75687 20.9352 -7.40296
head 3.55135 10.3809 -2.42161
lclavicle 5.94248e-14 -2.99502e-14 0
lhumerus 81.0088 -33.3728 33.3712
lradius 77.0675 0 0
lwrist 20.3044 0 0
lhand -10.2009 34.0479 0
lfingers 7.12502 0 0
lthumb 15.7865 63.3705 0
rclavicle 5.94248e-14 -2.99502e-14 0
rhumerus -28.6438 37.192 -73.0911
rradius 92.2279 0 0
rwrist -33.4468 0 0
rhand -10.9292 -403.533 0
rfingers 7.12502 0 0
rthumb 15.0841 287.108 0
1944
root 4.7702 13.8636 28.2574 1018.67 75.0012 294.524
lfemur -59.8836 -1.88015 -1.2113
ltibia 45.5548 0 0
lfoot 3.34299 -5.02572 0
ltoes -28.9891 0 0
rfemur -7.20851 6.04299 21.3209
rtibia 65.9496 0 0
rfoot -24.5753 -24.5198 0
rtoes -33.2535 0 0
lowerback 13.8604 4.0148 4.57422
upperback -0.5586 6.46088 3.39506
thorax -8.2765 3.04162 -0.272043
lowerneck -1.03325 15.3184 6.69138
upperneck 5.70624 20.8676 -7.45153
head 3.52458 10.3461 -2.43317
lclavicle 5.68642e-14 -2.80949e-14 0
lhumerus 82.4685 -33.7955 31.8348
lradius 80.095 0 0
lwrist 20.9581 0 0
lhand -10.631 34.3088 0
lfingers 7.12502 0 0
lthumb 15.3723 63.6638 0
rclavicle 5.68642e-14 -2.80949e-14 0
rhumerus -27.7602 38.1802 -72.7667
rradius 92.4641 0 0
rwrist -33.7463 0 0
rhand -10.4343 -403.312 0
rfingers 7.12502 0 0
rthumb 15.5607 287.365 0
1945
root 4.62956 13.8858 28.2946 1015.12 75.6613 290.87
lfemur -59.7367 -2.66327 -1.10598
ltibia 43.6297 0 0
lfoot 3.67417 -5.42143 0
ltoes -28.6711 0 0
rfemur -7.6042 6.76079 21.7823
rtibia 66.0265 0 0
rfoot -24.6721 -24.4418 0
rtoes -33.8841 0 0
lowerback 13.8992 3.95309 4.59124
upperback -0.572197 6.38554 3.38698
thorax -8.3125 3.00328 -0.278675
lowerneck -1.05277 15.2705 6.72078
upperneck 5.65562 20.8 -7.5001
head 3.49782 10.3112 -2.44473
lclavicle 5.43037e-14 -2.62396e-14 0
lhumerus 83.9282 -34.2181 30.2984
lradius 83.1226 0 0
lwrist 21.6118 0 0
lhand -11.0611 34.5697 0
lfingers 7.12502 0 0
lthumb 14.9581 63.9571 0
rclavicle 5.43037e-14 -2.62396e-14 0
rhumerus -26.8766 39.1685 -72.4424
rradius 92.7003 0 0
rwrist -34.0457 0 0
rhand -9.93931 -403.092 0
rfingers 7.12502 0 0
rthumb 16.0374 287.622 0
1946
root 4.48891 13.908 28.3318 1011.58 76.3214 287.217
lfemur -59.5897 -3.44638 -1.00066
ltibia 41.7046 0 0
lfoot 4.00534 -5.81715 0
ltoes -28.3531 0 0
rfemur -7.99989 7.47859 22.2437
rtibia 66.1034 0 0
rfoot -24.7689 -24.3638 0
rtoes -34.5146 0 0
lowerback 13.9379 3.89138 4.60826
upperback -0.585794 6.31021 3.3789
thorax -8.3485 2.96494 -0.285306
lowerneck -1.07229 15.2226 6.75017
upperneck 5.60499 20.7325 -7.54867
head 3.47106 10.2764 -2.45629
lclavicle 5.17432e-14 -2.43843e-14 0
lhumerus 85.3879 -34.6407 28.762
lradius 86.1502 0 0
lwrist 22.2655 0 0
lhand -11.4912 34.8306 0
lfingers 7.12502 0 0
lthumb 14.5439 64.2504 0
rclavicle 5.17432e-14 -2.43843e-14 0
rhumerus -25.9931 40.1568 -72.118
rradius 92.9365 0 0
rwrist -34.3451 0 0
rhand -9.44437 -402.872 0
rfingers 7.12502 0 0
rthumb 16.5141 287.879 0
1947
root 4.34827 13.9301 28.369 1008.03 76.9814 283.563
lfemur -59.4427 -4.2295 -0.895348
ltibia 39.7795 0 0
lfoot 4.33652 -6.21287 0
ltoes -28.0351 0 0
rfemur -8.39558 8.19639 22.7051
rtibia 66.1802 0 0
rfoot -24.8657 -24.2858 0
rtoes -35.1451 0 0
lowerback 13.9766 3.82967 4.62528
upperback -0.599391 6.23487 3.37083
thorax -8.3845 2.9266 -0.291938
lowerneck -1.09181 15.1747 6.77957
upperneck 5.55437 20.6649 -7.59724
head 3.4443 10.2415 -2.46786
lclavicle 4.91826e-14 -2.25289e-14 0
lhumerus 86.8477 -35.0633 27.2257
lradius 89.1778 0 0
lwrist 22.9192 0 0
lhand -11.9213 35.0914 0
lfingers 7.12502 0 0
lthumb 14.1297 64.5438 0
rclavicle 4.91826e-14 -2.25289e-14 0
rhumerus -25.1095 41.1451 -71.7937
rradius 93.1728 0 0
rwrist -34.6445 0 0
rhand -8.94943 -402.651 0
rfingers 7.12502 0 0
rthumb 16.9908 288.136 0
1948
root 4.20762 13.9523 28.4062 1004.48 77.6415 279.91
lfemur -59.2958 -5.01262 -0.790031
ltibia 37.8545 0 0
lfoot 4.6677 -6.60859 0
ltoes -27.7171 0 0
rfemur -8.79127 8.91419 23.1665
rtibia 66.2571 0 0
rfoot -24.9625 -24.2078 0
rtoes -35.7757 0 0
lowerback 14.0154 3.76796 4.6423
upperback -0.612989 6.15953 3.36275
thorax -8.42051 2.88826 -0.29857
lowerneck -1.11133 15.1268 6.80896
upperneck 5.50375 20.5973 -7.64581
head 3.41754 10.2067 -2.47942
lclavicle 4.66221e-14 -2.06736e-14 0
lhumerus 88.3074 -35.486 25.6893
lradius 92.2054 0 0
lwrist 23.5729 0 0
lhand -12.3514 35.3523 0
lfingers 7.12502 0 0
lthumb 13.7155 64.8371 0
rclavicle 4.66221e-14 -2.06736e-14 0
rhumerus -24.2259 42.1334 -71.4694
rradius 93.409 0 0
rwrist -34.944 0 0
rhand -8.45449 -402.431 0
rfingers 7.12502 0 0
rthumb 17.4674 288.393 0
